<?xml version="1.0" encoding="utf-8"?>
<svg viewBox="124.119 124.119 251.761 251.761" xmlns="http://www.w3.org/2000/svg">
  <path d="M 165.132 268.555 L 124.119 268.555 L 124.119 231.444 L 165.131 231.444 C 172.329 198.369 198.369 172.329 231.444 165.131 L 231.444 124.119 L 268.555 124.119 L 268.555 165.132 C 301.63 172.329 327.67 198.37 334.868 231.444 L 375.88 231.444 L 375.88 268.555 L 334.867 268.555 C 327.669 301.629 301.629 327.669 268.555 334.867 L 268.555 375.88 L 231.444 375.88 L 231.444 334.868 C 198.37 327.67 172.33 301.629 165.132 268.555 Z M 249.999 200.248 C 222.523 200.248 200.248 222.523 200.248 249.999 C 200.248 277.476 222.523 299.75 249.999 299.75 C 277.476 299.75 299.75 277.476 299.75 249.999 C 299.75 222.523 277.476 200.248 249.999 200.248 Z" style="fill-rule: nonzero; paint-order: fill; fill: rgb(172, 172, 172);"/>
</svg>